<svg width="103" height="99" viewBox="0 0 103 99" fill="none" xmlns="http://www.w3.org/2000/svg">
<g id="Group 249">
<g id="x35 82 x2C  Lcd Ranking x2C  Monitor x2C  Rank Screen x2C  Graph">
<g id="Group">
<path id="Vector" d="M95.476 85.2626C94.8667 85.2626 93.4399 85.2626 91.5053 85.2626C95.0557 84.416 97.6964 81.2256 97.6964 77.4181V26.9401C97.6964 22.4861 94.0838 18.8735 89.6276 18.8735C82.1878 18.8735 19.9541 18.8735 12.5074 18.8735C8.0511 18.8735 4.44077 22.4861 4.44077 26.9401V77.4181C4.44077 81.2256 7.07991 84.4162 10.6296 85.2626C8.2103 85.2626 6.66603 85.2626 6.66115 85.2626C2.98199 85.2626 3.05176e-05 88.2446 3.05176e-05 91.9238C3.05176e-05 95.6049 2.98843 98.5849 6.66115 98.5849H95.476C99.1552 98.5849 102.137 95.6029 102.137 91.9238C102.137 88.2788 99.1852 85.2626 95.476 85.2626Z" fill="#57606F"/>
<path id="Vector_2" d="M39.9667 85.2627V89.7034H62.1704V85.2627H95.476C99.1852 85.2627 102.137 88.2788 102.137 91.9238C102.137 95.603 99.1552 98.5849 95.476 98.5849H6.66115C2.98843 98.5849 3.05176e-05 95.605 3.05176e-05 91.9238C3.05176e-05 88.2447 2.98199 85.2627 6.66115 85.2627H39.9667Z" fill="#414A56"/>
<path id="Vector_3" d="M76.6028 85.2627H88.8149V89.7034H76.6028V85.2627Z" fill="#7D89AA"/>
<path id="Vector_4" d="M13.3223 85.2627H25.5343V89.7034H13.3223V85.2627Z" fill="#7D89AA"/>
<path id="Vector_5" d="M93.2556 3.33081C95.7069 3.33081 97.6964 5.31804 97.6964 7.77155C97.6964 10.2251 95.7069 12.2123 93.2556 12.2123C90.8021 12.2123 88.8149 10.2251 88.8149 7.77155C88.8149 5.31804 90.8021 3.33081 93.2556 3.33081Z" fill="#68CA44"/>
<path id="Vector_6" d="M13.3223 1.11035C16.3864 1.11035 18.8732 3.59495 18.8732 6.66128C18.8732 9.72761 16.3864 12.2122 13.3223 12.2122C10.2559 12.2122 7.77135 9.72761 7.77135 6.66128C7.77135 3.59495 10.2559 1.11035 13.3223 1.11035Z" fill="#68CA44"/>
<path id="Vector_7" d="M97.6964 77.4181C97.6964 81.8724 94.0838 85.4847 89.6275 85.4847C85.0536 85.4847 68.6979 85.4847 62.1704 85.4847V89.9254H39.9667V85.4847C37.1069 85.4847 15.2926 85.4847 12.5074 85.4847C8.05108 85.4847 4.44076 81.8722 4.44076 77.4181V26.9401C4.44076 22.4861 8.05108 18.8735 12.5074 18.8735H89.6275C94.0838 18.8735 97.6964 22.4861 97.6964 26.9401V77.4181Z" fill="#57606F"/>
<path id="Vector_8" d="M89.9251 26.6448V77.7133H12.2121C12.2121 75.5094 12.2121 28.9193 12.2121 26.6448H89.9251Z" fill="#D0DCE7"/>
<path id="Vector_9" d="M67.7214 4.44092V38.8567H58.8399V7.77148V4.44092H67.7214Z" fill="#E83A70"/>
<path id="Vector_10" d="M49.9584 11.1021V38.8567H41.0769V14.4326V11.1021H49.9584Z" fill="#E83A70"/>
<g id="Group_2">
<path id="Vector_11" d="M76.6029 26.6446V38.8567H67.7214V4.44091V1.11035H76.6029V18.8733V26.6446Z" fill="#FF5987"/>
<path id="Vector_12" d="M58.8399 7.77173V38.8569H49.9584V11.1023V7.77173H58.8399Z" fill="#FF5987"/>
<path id="Vector_13" d="M41.0769 14.4326V38.8567H32.1954V26.6447V18.8734V14.4326H41.0769Z" fill="#FF5987"/>
</g>
<path id="Vector_14" d="M83.819 3.3308C84.7387 3.3308 85.4843 2.58523 85.4843 1.66552C85.4843 0.745815 84.7387 0.000244141 83.819 0.000244141C82.8993 0.000244141 82.1538 0.745815 82.1538 1.66552C82.1538 2.58523 82.8993 3.3308 83.819 3.3308Z" fill="#94D4FF"/>
<path id="Vector_15" d="M30.5301 5.55102C31.4498 5.55102 32.1954 4.80545 32.1954 3.88574C32.1954 2.96603 31.4498 2.22046 30.5301 2.22046C29.6104 2.22046 28.8648 2.96603 28.8648 3.88574C28.8648 4.80545 29.6104 5.55102 30.5301 5.55102Z" fill="#94D4FF"/>
<path id="Vector_16" d="M3.8857 16.6528C4.80541 16.6528 5.55098 15.9073 5.55098 14.9875C5.55098 14.0678 4.80541 13.3223 3.8857 13.3223C2.96599 13.3223 2.22042 14.0678 2.22042 14.9875C2.22042 15.9073 2.96599 16.6528 3.8857 16.6528Z" fill="#94D4FF"/>
<g id="Group_3">
<path id="Vector_17" d="M27.7547 58.84H41.0769C41.6899 58.84 42.1871 58.3431 42.1871 57.7298C42.1871 57.1165 41.6899 56.6196 41.0769 56.6196H27.7547C27.1416 56.6196 26.6445 57.1165 26.6445 57.7298C26.6445 58.3431 27.1416 58.84 27.7547 58.84Z" fill="#A0B5C5"/>
<path id="Vector_18" d="M58.8399 61.0603H27.7547C27.1416 61.0603 26.6445 61.5572 26.6445 62.1705C26.6445 62.7838 27.1416 63.2807 27.7547 63.2807H58.8399C59.4531 63.2807 59.9501 62.7838 59.9501 62.1705C59.9501 61.5572 59.4531 61.0603 58.8399 61.0603Z" fill="#A0B5C5"/>
<path id="Vector_19" d="M27.7547 49.9587H41.0769C41.69 49.9587 42.1871 49.4617 42.1871 48.8485C42.1871 48.2352 41.69 47.7383 41.0769 47.7383H27.7547C27.1416 47.7383 26.6445 48.2352 26.6445 48.8485C26.6445 49.4617 27.1416 49.9587 27.7547 49.9587Z" fill="#A0B5C5"/>
<path id="Vector_20" d="M27.7547 54.3993H58.8399C59.4531 54.3993 59.9501 53.9024 59.9501 53.2891C59.9501 52.6759 59.4531 52.179 58.8399 52.179H27.7547C27.1416 52.179 26.6445 52.6759 26.6445 53.2891C26.6445 53.9024 27.1416 54.3993 27.7547 54.3993Z" fill="#A0B5C5"/>
<path id="Vector_21" d="M27.7547 67.7216H41.0769C41.6899 67.7216 42.1871 67.2247 42.1871 66.6114C42.1871 65.9981 41.6899 65.5012 41.0769 65.5012H27.7547C27.1416 65.5012 26.6445 65.9981 26.6445 66.6114C26.6445 67.2247 27.1416 67.7216 27.7547 67.7216Z" fill="#A0B5C5"/>
<path id="Vector_22" d="M58.8399 69.9419H27.7547C27.1416 69.9419 26.6445 70.4388 26.6445 71.0521C26.6445 71.6653 27.1416 72.1623 27.7547 72.1623H58.8399C59.4531 72.1623 59.9501 71.6653 59.9501 71.0521C59.9501 70.4388 59.4531 69.9419 58.8399 69.9419Z" fill="#A0B5C5"/>
</g>
<path id="Vector_23" d="M81.0436 39.967H27.7547C27.1416 39.967 26.6445 39.4698 26.6445 38.8568C26.6445 38.2437 27.1416 37.7466 27.7547 37.7466H81.0436C81.6569 37.7466 82.1538 38.2437 82.1538 38.8568C82.1538 39.4698 81.6569 39.967 81.0436 39.967Z" fill="#A0B5C5"/>
</g>
</g>
</g>
</svg>
