<svg width="101" height="99" viewBox="0 0 101 99" fill="none" xmlns="http://www.w3.org/2000/svg">
<g id="Group 250">
<g id="x36 14 x2C  Call x2C  Hours x2C  Service x2C  Time">
<g id="Group">
<path id="Vector" d="M50.5999 14.3003C31.1519 14.3003 15.4 30.0524 15.4 49.5004C15.4 68.9484 31.1521 84.7003 50.5999 84.7003C53.526 84.7003 56.342 84.3484 59.0483 83.6665C58.5641 81.8843 58.3 80.0144 58.3 78.1004C58.3 66.5505 67.6502 57.2003 79.2001 57.2003C81.1359 57.2003 83.0059 57.4644 84.788 57.9484C85.4481 55.2423 85.8 52.4044 85.8 49.5004C85.8 30.0524 70.0481 14.3003 50.5999 14.3003Z" fill="#F5FAFF"/>
<path id="Vector_2" d="M7.69988 81.4006C11.9459 81.4006 15.3998 84.8545 15.3998 89.1005C15.3998 93.3465 11.9459 96.8006 7.69988 96.8006C3.4539 96.8004 0 93.3463 0 89.1003C0 84.8543 3.4539 81.4006 7.69988 81.4006Z" fill="#68CA44"/>
<path id="Vector_3" d="M92.3999 5.50049C94.8199 5.50049 96.7998 7.45847 96.7998 9.90042C96.7998 12.3424 94.8199 14.3003 92.3999 14.3003C89.98 14.3003 87.9999 12.3424 87.9999 9.90042C87.9999 7.45847 89.98 5.50049 92.3999 5.50049Z" fill="#68CA44"/>
<g id="Group_2">
<path id="Vector_4" d="M52.8001 21.4502V25.8501C52.8001 27.0603 51.81 28.0501 50.5999 28.0501C49.39 28.0501 48.3999 27.0601 48.3999 25.8501V21.4502C48.3999 20.2401 49.39 19.2502 50.5999 19.2502C51.2161 19.2502 51.766 19.4922 52.1619 19.8882C52.5578 20.2841 52.8001 20.8344 52.8001 21.4502Z" fill="#3B8DD0"/>
<path id="Vector_5" d="M71.9839 28.1162C72.402 28.5342 72.6219 29.1062 72.6219 29.6782C72.6219 30.2502 72.402 30.8001 71.9839 31.2403L68.882 34.3423C68.024 35.2003 66.638 35.2003 65.78 34.3423C64.9218 33.4843 64.9218 32.0983 65.78 31.2403L68.882 28.1383C69.74 27.2584 71.1259 27.2584 71.9839 28.1162Z" fill="#3B8DD0"/>
<path id="Vector_6" d="M78.65 47.3005C79.8599 47.3005 80.8499 48.2906 80.8499 49.5005C80.8499 50.1165 80.6079 50.6666 80.2122 51.0623C79.8163 51.4585 79.2662 51.7002 78.6502 51.7002H74.2503C73.0403 51.7002 72.0503 50.7104 72.0503 49.5003C72.0503 48.2901 73.0403 47.3003 74.2503 47.3003H78.65V47.3005Z" fill="#3B8DD0"/>
<path id="Vector_7" d="M52.8001 73.1504V77.5506C52.8001 78.7605 51.81 79.7505 50.5999 79.7505C49.39 79.7505 48.3999 78.7605 48.3999 77.5506V73.1504C48.3999 71.9405 49.39 70.9504 50.5999 70.9504C51.2161 70.9504 51.766 71.1924 52.1619 71.5884C52.5578 71.9843 52.8001 72.5346 52.8001 73.1504Z" fill="#3B8DD0"/>
<path id="Vector_8" d="M35.4421 64.6584C35.882 65.0983 36.08 65.6484 36.08 66.2202C36.08 66.7924 35.8599 67.3423 35.4421 67.7823L32.3401 70.8845C31.4821 71.7425 30.0961 71.7425 29.2381 70.8845C28.3801 70.0265 28.3801 68.6405 29.2381 67.7823L32.3401 64.6803C33.176 63.8004 34.5841 63.8004 35.4421 64.6584Z" fill="#3B8DD0"/>
<path id="Vector_9" d="M26.9499 47.3005C28.16 47.3005 29.1499 48.2906 29.1499 49.5005C29.1499 50.1165 28.9079 50.6666 28.512 51.0623C28.116 51.4585 27.5659 51.7002 26.9499 51.7002H22.55C21.3401 51.7002 20.35 50.7104 20.35 49.5003C20.35 48.2901 21.3401 47.3003 22.55 47.3003H26.9499V47.3005Z" fill="#3B8DD0"/>
<path id="Vector_10" d="M35.4421 31.2184C36.3001 32.0764 36.3001 33.4624 35.4421 34.3204C34.5841 35.1784 33.1981 35.1784 32.3401 34.3204L29.2381 31.2184C28.3801 30.3604 28.3801 28.9744 29.2381 28.1164C29.6562 27.6984 30.2282 27.4785 30.8002 27.4785C31.3722 27.4785 31.9221 27.6986 32.3622 28.1164L35.4421 31.2184Z" fill="#3B8DD0"/>
</g>
<path id="Vector_11" d="M62.6999 49.5004H53.8998C53.8998 47.6745 52.4258 46.2005 50.5997 46.2005V37.4004C57.2883 37.4004 62.6999 42.8125 62.6999 49.5004Z" fill="#D0DCE7"/>
<path id="Vector_12" d="M93.5001 49.5003C93.5001 53.6364 92.9059 57.6404 91.8281 61.4464C89.7599 59.8622 87.3622 58.6744 84.788 57.9704C90.266 35.7062 73.392 14.3002 50.5999 14.3002C31.1519 14.3002 15.4 30.0523 15.4 49.5003C15.4 68.9483 31.1521 84.7002 50.5999 84.7002C53.526 84.7002 56.342 84.3483 59.0482 83.6664C59.7521 86.2404 60.962 88.6383 62.5243 90.7062C58.7401 91.8064 54.7364 92.4003 50.5782 92.4003C26.8842 92.4003 7.67819 73.1943 7.67819 49.5003C7.67819 25.8064 26.8842 6.60034 50.5782 6.60034C74.2941 6.60034 93.5001 25.8064 93.5001 49.5003Z" fill="#57606F"/>
<path id="Vector_13" d="M100.1 78.1003C100.1 89.6502 90.75 99.0002 79.2001 99.0002C67.6502 99.0002 58.3 89.6283 58.3 78.1003C58.3 64.2843 71.4781 54.2743 84.788 57.9483C93.61 60.3902 100.1 68.4865 100.1 78.1003Z" fill="#FF5987"/>
<g id="x36 14 x2C  Call x2C  Hours x2C  Service x2C  Time 1">
<g id="Group_3">
<g id="Group_4">
<path id="Vector_14" d="M88.1979 86.6141C87.5819 86.6141 87.0979 86.1081 87.0979 85.5142V82.1702H80.6739C80.278 82.1702 79.9258 81.9501 79.7279 81.6201C79.5299 81.2901 79.5299 80.872 79.7279 80.5199L85.5799 70.334C85.7779 69.9821 86.1298 69.7839 86.5257 69.7839H88.2419C88.5277 69.7839 88.8139 69.8939 89.0117 70.114C89.2099 70.334 89.3419 70.5981 89.3419 70.8841L89.3198 79.97H90.1778C90.7938 79.97 91.2778 80.454 91.2778 81.07C91.2778 81.686 90.7938 82.1702 90.1778 82.1702H89.3198V85.5361C89.2979 86.1302 88.792 86.6141 88.1979 86.6141ZM82.566 79.9702H87.0979L87.1198 72.0281L82.566 79.9702Z" fill="white"/>
</g>
<g id="Group_5">
<path id="Vector_15" d="M76.89 87.0984L69.168 87.0763C68.882 87.0763 68.5958 86.9663 68.398 86.7462C68.1998 86.5483 68.0678 86.2623 68.0678 85.9763V85.4702C68.0678 85.1844 68.1777 84.9203 68.3759 84.7221C68.398 84.7 70.0039 83.0061 73.6778 77.7482C74.4259 76.692 74.8877 75.7241 75.1076 74.9101L75.1737 74.4701C75.1297 72.9742 73.9198 71.7641 72.4018 71.7641C71.0817 71.7641 69.9377 72.7101 69.6957 73.9862C69.5858 74.5801 68.9919 74.9762 68.3978 74.8442C67.8037 74.7342 67.4077 74.1403 67.5398 73.5462C68.0016 71.2361 70.0479 69.542 72.4018 69.542C75.1297 69.542 77.3737 71.7639 77.3737 74.5142V74.646L77.3078 75.2401C77.3078 75.2839 77.2857 75.3062 77.2857 75.35C77.0216 76.4719 76.4277 77.7039 75.5035 79.0021C73.4575 81.9283 72.0275 83.7982 71.1476 84.8982L76.9338 84.9203C77.5498 84.9203 78.0337 85.4264 78.0337 86.0203C77.99 86.6142 77.506 87.0984 76.89 87.0984Z" fill="white"/>
</g>
</g>
</g>
<path id="Vector_16" d="M95.15 25.3003C96.052 25.3003 96.8 26.0484 96.8 26.9504C96.8 27.8524 96.052 28.6002 95.15 28.6002C94.2482 28.6002 93.5001 27.8522 93.5001 26.9504C93.5001 26.0484 94.2482 25.3003 95.15 25.3003Z" fill="#94D4FF"/>
<path id="Vector_17" d="M77.55 0.000244141C78.452 0.000244141 79.2001 0.748313 79.2001 1.65033C79.2001 2.55235 78.452 3.30042 77.55 3.30042C76.648 3.30042 75.8999 2.55235 75.8999 1.65033C75.8999 0.748313 76.648 0.000244141 77.55 0.000244141Z" fill="#94D4FF"/>
<path id="Vector_18" d="M32.45 92.4004C33.3521 92.4004 34.0999 93.1485 34.0999 94.0505C34.0999 94.9525 33.3518 95.7006 32.45 95.7006C31.548 95.7006 30.8 94.9525 30.8 94.0505C30.8 93.1485 31.548 92.4004 32.45 92.4004Z" fill="#94D4FF"/>
<path id="Vector_19" d="M10.4499 3.30054C11.3741 3.30054 12.1 4.04861 12.1 4.9504C12.1 5.85242 11.3741 6.60048 10.4499 6.60048C9.54792 6.60048 8.80008 5.85242 8.80008 4.9504C8.80008 4.04861 9.54792 3.30054 10.4499 3.30054Z" fill="#94D4FF"/>
<path id="Vector_20" d="M3.85005 28.6003C4.77397 28.6003 5.49991 29.3484 5.49991 30.2504C5.49991 31.1524 4.77397 31.9005 3.85005 31.9005C2.94803 31.9005 2.19997 31.1524 2.19997 30.2504C2.19997 29.3484 2.94803 28.6003 3.85005 28.6003Z" fill="#94D4FF"/>
<path id="Vector_21" d="M50.5999 62.7003C43.318 62.7003 37.4001 56.7824 37.4001 49.5003C37.4001 48.8843 37.884 48.4003 38.5001 48.4003C39.1161 48.4003 39.6 48.8843 39.6 49.5003C39.6 55.5724 44.5279 60.5001 50.5999 60.5001C56.672 60.5001 61.5999 55.5722 61.5999 49.5003C61.5999 43.4284 56.6718 38.5003 50.5999 38.5003C49.9841 38.5003 49.5001 38.0163 49.5001 37.4003C49.5001 36.7843 49.9841 36.3003 50.5999 36.3003C57.8821 36.3003 63.7999 42.2183 63.7999 49.5003C63.7999 56.7824 57.8821 62.7003 50.5999 62.7003Z" fill="#A0B5C5"/>
<path id="Vector_22" d="M62.6999 50.6004H53.8998C53.2838 50.6004 52.7998 50.1164 52.7998 49.5004C52.7998 48.8844 53.2838 48.4004 53.8998 48.4004H62.6999C63.3159 48.4004 63.7999 48.8844 63.7999 49.5004C63.7999 50.1164 63.3159 50.6004 62.6999 50.6004Z" fill="#57606F"/>
<path id="Vector_23" d="M50.5999 47.3004C49.9841 47.3004 49.5001 46.8164 49.5001 46.2004V33.0004C49.5001 32.3844 49.9841 31.9004 50.5999 31.9004C51.2161 31.9004 51.7001 32.3844 51.7001 33.0004V46.2004C51.7001 46.8164 51.2161 47.3004 50.5999 47.3004Z" fill="#57606F"/>
<path id="Vector_24" d="M50.5999 46.2004C52.426 46.2004 53.9 47.6745 53.9 49.5004C53.9 51.3263 52.426 52.8006 50.5999 52.8006C48.7739 52.8006 47.2999 51.3263 47.2999 49.5004C47.2999 47.6745 48.7739 46.2004 50.5999 46.2004Z" fill="#FF5987"/>
</g>
</g>
</g>
</svg>
