<svg width="106" height="87" viewBox="0 0 106 87" fill="none" xmlns="http://www.w3.org/2000/svg">
<g id="Group 251">
<g id="Group">
<g id="Group_2">
<g id="Group_3">
<path id="Vector" d="M26.0185 53.8039C22.2318 53.8039 18.7961 52.1789 16.2612 49.5527C16.2594 51.1265 16.2021 53.3986 15.7849 55.0559C16.0587 55.2232 16.2711 55.498 16.3125 55.8397C16.8535 60.2417 21.0259 63.5608 26.0185 63.5608C31.0104 63.5608 35.1826 60.2413 35.7245 55.8397C35.7666 55.4974 35.9745 55.2232 36.2524 55.0564C35.835 53.3986 35.7777 51.1265 35.7759 49.5525C33.2409 52.1789 29.8051 53.8039 26.0185 53.8039Z" fill="#FFB980"/>
</g>
<g id="Group_4">
<path id="Vector_2" d="M35.5641 49.7529C33.0505 52.2566 29.7041 53.8042 26.0185 53.8042C22.2318 53.8042 18.7961 52.1792 16.2612 49.553C16.2594 51.1268 16.2021 53.3988 15.7849 55.0562C16.0587 55.2235 16.2711 55.4983 16.3125 55.84C16.5516 57.7857 17.502 59.5182 18.9174 60.8478C25.4447 59.9284 32.8533 53.483 35.5641 49.7529Z" fill="#F8AB6B"/>
</g>
<g id="Group_5">
<path id="Vector_3" d="M45.8055 56.2267C45.762 56.2146 45.7187 56.2049 45.6742 56.1986L37.0203 54.9001C36.9674 54.8921 36.8541 54.888 36.8001 54.888C36.2528 54.888 35.7913 55.2962 35.7246 55.8398C35.1826 60.2415 31.0102 63.5609 26.0186 63.5609C21.0257 63.5609 16.8535 60.2419 16.3126 55.8398C16.2448 55.2804 15.7408 54.8595 15.2095 54.8886C15.1459 54.8849 15.0835 54.8903 15.0168 54.9003L6.36296 56.1988C6.31842 56.2051 6.27512 56.2146 6.23162 56.2269C2.14071 57.3722 3.05176e-05 61.3975 3.05176e-05 64.7816V68.9815C3.05176e-05 70.7696 1.59235 72.2242 3.54977 72.2242H48.4872C50.4448 72.2242 52.0369 70.7696 52.0369 68.9815V64.7816C52.0369 61.3975 49.8962 57.3722 45.8055 56.2267Z" fill="#00E68C"/>
</g>
<g id="Group_6">
<path id="Vector_4" d="M35.7754 26.7014H17.3456C14.357 26.7014 11.9251 29.1333 11.9251 32.122V38.6265C11.9251 46.9955 18.2476 53.8039 26.0183 53.8039C33.7891 53.8039 40.1116 46.9955 40.1116 38.6265V31.0378C40.1118 28.6469 38.1669 26.7014 35.7754 26.7014Z" fill="#FDC88E"/>
</g>
<g id="Group_7">
<path id="Vector_5" d="M33.6073 14.7764H19.5138C17.4747 14.7764 15.7607 16.1908 15.2992 18.0895C11.5672 18.5638 8.67273 21.7589 8.67273 25.6173V31.0378C8.67273 33.8317 9.85871 36.438 11.9251 38.2904V32.1218C11.9251 29.1331 14.357 26.7012 17.3456 26.7012H35.7755C38.1671 26.7012 40.1118 28.6465 40.1118 31.0376V38.2891C42.1786 36.4372 43.3642 33.8309 43.3642 31.0376V24.5331C43.3642 19.1536 38.9874 14.7764 33.6073 14.7764Z" fill="#5C546A"/>
</g>
</g>
<g id="Group_8">
<g id="Group_9">
<path id="Vector_6" d="M79.0555 53.8039C75.2687 53.8039 71.8331 52.1789 69.2982 49.5527C69.2963 51.1265 69.2391 53.3986 68.8218 55.0559C69.0956 55.2232 69.308 55.498 69.3495 55.8397C69.8904 60.2417 74.0628 63.5608 79.0555 63.5608C84.0473 63.5608 88.2195 60.2413 88.7615 55.8397C88.8035 55.4974 89.0114 55.2232 89.2893 55.0564C88.8719 53.3986 88.8146 51.1265 88.8128 49.5525C86.2779 52.1789 82.8422 53.8039 79.0555 53.8039Z" fill="#FFB980"/>
</g>
<g id="Group_10">
<path id="Vector_7" d="M88.601 49.7529C86.0874 52.2566 82.7411 53.8042 79.0555 53.8042C75.2687 53.8042 71.8331 52.1792 69.2982 49.553C69.2963 51.1268 69.2391 53.3988 68.8218 55.0562C69.0956 55.2235 69.308 55.4983 69.3495 55.84C69.5886 57.7857 70.5389 59.5182 71.9544 60.8478C78.4817 59.9284 85.8902 53.483 88.601 49.7529Z" fill="#F8AB6B"/>
</g>
<g id="Group_11">
<path id="Vector_8" d="M98.8424 56.2267C98.7991 56.2146 98.7556 56.2049 98.7111 56.1986L90.0573 54.9001C90.0043 54.8921 89.891 54.888 89.8371 54.888C89.2897 54.888 88.8282 55.2962 88.7615 55.8398C88.2195 60.2415 84.0471 63.5609 79.0555 63.5609C74.0626 63.5609 69.8905 60.2419 69.3495 55.8398C69.2818 55.2804 68.7777 54.8595 68.2464 54.8886C68.1828 54.8849 68.1204 54.8903 68.0537 54.9003L59.3999 56.1988C59.3554 56.2051 59.3121 56.2146 59.2685 56.2269C55.1778 57.3724 53.0372 61.3975 53.0372 64.7816V68.9815C53.0372 70.7696 54.6295 72.2242 56.5869 72.2242H101.524C103.482 72.2242 105.074 70.7696 105.074 68.9815V64.7816C105.074 61.3975 102.933 57.3722 98.8424 56.2267Z" fill="#00ABFF"/>
</g>
<g id="Group_12">
<path id="Vector_9" d="M88.8124 26.7014H70.3826C67.3939 26.7014 64.962 29.1333 64.962 32.122V38.6265C64.962 46.9955 71.2845 53.8039 79.0553 53.8039C86.826 53.8039 93.1485 46.9955 93.1485 38.6265V31.0378C93.149 28.6469 91.2041 26.7014 88.8124 26.7014Z" fill="#FDC88E"/>
</g>
<g id="Group_13">
<path id="Vector_10" d="M86.6442 14.7764H72.551C70.5119 14.7764 68.7979 16.1908 68.3363 18.0895C64.6044 18.5638 61.7099 21.7589 61.7099 25.6173V31.0378C61.7099 33.8317 62.8959 36.438 64.9623 38.2904V32.1218C64.9623 29.1331 67.3942 26.7012 70.3828 26.7012H88.8126C91.2043 26.7012 93.149 28.6465 93.149 31.0376V38.2891C95.2158 36.4372 96.4013 33.8309 96.4013 31.0376V24.5331C96.4011 19.1536 92.0246 14.7764 86.6442 14.7764Z" fill="#7E5C62"/>
</g>
</g>
<g id="Group_14">
<g id="Group_15">
<path id="Vector_11" d="M52.537 59.1043C46.8023 59.1043 41.5993 56.6434 37.7604 52.666C37.7575 55.0497 37.6709 58.49 37.0388 61.0003C37.4534 61.2538 37.7752 61.6698 37.838 62.1873C38.6572 68.8538 44.9758 73.8803 52.537 73.8803C60.0966 73.8803 66.4152 68.8532 67.2361 62.1873C67.2997 61.6691 67.6145 61.2538 68.0354 61.0011C67.4033 58.4906 67.3165 55.0499 67.3137 52.666C63.4748 56.6434 58.2718 59.1043 52.537 59.1043Z" fill="#FDC88E"/>
</g>
<g id="Group_16">
<path id="Vector_12" d="M66.9929 52.9689C63.1862 56.7608 58.1187 59.1043 52.537 59.1043C46.8023 59.1043 41.5993 56.6434 37.7604 52.666C37.7575 55.0497 37.6709 58.49 37.0388 61.0003C37.4534 61.2538 37.7752 61.6698 37.838 62.1873C38.2002 65.1341 39.6394 67.7579 41.783 69.7711C51.6681 68.3791 62.8876 58.6181 66.9929 52.9689Z" fill="#FFB980"/>
</g>
<g id="Group_17">
<path id="Vector_13" d="M82.5026 62.7735C82.4369 62.7551 82.371 62.7407 82.3037 62.7311L69.1984 60.7646C69.1182 60.7525 68.9466 60.7462 68.8649 60.7462C68.036 60.7462 67.337 61.3643 67.2359 62.1874C66.415 68.8531 60.0964 73.8804 52.5368 73.8804C44.9756 73.8804 38.657 68.8541 37.8377 62.1874C37.7351 61.3401 36.9719 60.7029 36.167 60.7468C36.0707 60.7412 35.9761 60.7492 35.8752 60.7644L22.7699 62.7309C22.7025 62.7405 22.6369 62.7549 22.571 62.7733C16.3761 64.5083 13.1342 70.604 13.1342 75.729V82.0893C13.1342 84.7972 15.5456 87.0003 18.5101 87.0003H86.5637C89.5282 87.0003 91.9395 84.7974 91.9395 82.0893V75.729C91.9397 70.604 88.6978 64.5083 82.5026 62.7735Z" fill="#FF5987"/>
</g>
<g id="Group_18">
<path id="Vector_14" d="M67.313 18.0598H39.4028C34.8766 18.0598 31.1938 21.7425 31.1938 26.2687V36.1194C31.1938 48.7935 40.7687 59.1043 52.537 59.1043C64.3053 59.1043 73.8802 48.7935 73.8802 36.1194V24.6269C73.8802 21.006 70.9348 18.0598 67.313 18.0598Z" fill="#FFE1B2"/>
</g>
<g id="Group_19">
<path id="Vector_15" d="M64.0295 0.000244141H42.6863C39.5983 0.000244141 37.0027 2.14215 36.3035 5.01773C30.6518 5.73601 26.2685 10.5747 26.2685 16.4181V24.627C26.2685 28.858 28.0646 32.8053 31.1938 35.6105V26.2687C31.1938 21.7426 34.8766 18.0598 39.4027 18.0598H67.313C70.9348 18.0598 73.8801 21.0058 73.8801 24.627V35.6086C77.01 32.8041 78.8055 28.857 78.8055 24.627V14.7763C78.8055 6.62914 72.1774 0.000244141 64.0295 0.000244141Z" fill="#7E5449"/>
</g>
</g>
</g>
</g>
</svg>
