<svg width="94" height="99" viewBox="0 0 94 99" fill="none" xmlns="http://www.w3.org/2000/svg">
<g id="Group 248">
<g id="Group 247">
<path id="Vector" d="M23.1206 52.9141C10.6975 52.9141 7.87344 66.4469 7.75859 81.3565C7.75395 81.977 8.13409 82.5356 8.71688 82.7966C10.7125 83.6905 13.3451 84.4 16.045 84.8609L30.1543 84.8683C32.871 84.4075 35.5186 83.6952 37.5244 82.7968C38.1071 82.5356 38.4873 81.9772 38.4826 81.3567C38.3676 66.4471 35.5438 52.9141 23.1206 52.9141Z" fill="#7D5A50"/>
<path id="Vector_2" d="M40.1896 95.5866V93.4376C40.1896 91.5999 39.2051 89.9032 37.6095 88.9915L29.9613 84.6212C28.8976 84.0132 28.2412 82.8823 28.2412 81.6572V78.5176H18.0001V81.6572C18.0001 82.8823 17.3436 84.0132 16.28 84.6212L8.63201 88.9915C7.03641 89.9032 6.05182 91.5999 6.05182 93.4376V95.5866C6.05182 97.472 7.58013 99.0003 9.46558 99.0003H36.7759C38.6613 99.0003 40.1896 97.472 40.1896 95.5866Z" fill="#DAAD89"/>
<path id="Vector_3" d="M31.6551 66.5693V75.6181C31.6551 77.4168 30.7113 79.0835 29.1691 80.0091L24.8771 82.5845C23.796 83.233 22.4454 83.233 21.3643 82.5845L17.0723 80.0091C15.5299 79.0837 14.5863 77.4169 14.5863 75.6181V66.5693C14.5863 66.5693 24.8278 66.5693 28.2415 63.1555L31.6551 66.5693Z" fill="#F0C087"/>
<g id="Group">
<path id="Vector_4" d="M37.6096 88.9915L32.6267 86.144C31.6854 87.4798 28.1185 92.1498 23.1206 93.8796C18.1226 92.1498 14.5557 87.4798 13.6144 86.144L8.63176 88.9915C7.03616 89.9031 6.05157 91.5999 6.05157 93.4376V95.5866C6.05157 97.472 7.57989 99.0003 9.46534 99.0003H36.7756C38.6611 99.0003 40.1894 97.472 40.1894 95.5866V93.4376C40.1896 91.5999 39.2048 89.9031 37.6096 88.9915Z" fill="#FF678B"/>
<path id="Vector_5" d="M48.7241 8.53467H7.75856C4.00332 8.53467 0.93103 11.6072 0.93103 15.3622V39.2587C0.93103 43.014 4.00351 46.0863 7.75856 46.0863H29.9483V52.5603C29.9483 53.3208 30.8677 53.7013 31.4051 53.1638L38.4828 46.0864H48.7243C52.4795 46.0864 55.5518 43.014 55.5518 39.2589V15.3622C55.5516 11.6072 52.4791 8.53467 48.7241 8.53467Z" fill="#FF5987"/>
</g>
<path id="Vector_6" d="M38.4827 8.53467V30.7244C38.4827 34.4797 41.5552 37.5519 45.3102 37.5519H55.5517V39.2589C55.5517 39.8518 55.4488 40.4172 55.3036 40.9659H45.3104C39.6633 40.9659 35.0689 36.3715 35.0689 30.7244V8.53467H38.4827Z" fill="#F9FBFF"/>
<path id="Vector_7" d="M31.6551 23.8968C31.6551 18.2493 27.0613 13.6553 21.4137 13.6553C15.766 13.6553 11.1722 18.2491 11.1722 23.8968V29.0175C11.1722 34.665 15.766 39.259 21.4137 39.259C23.6222 39.259 25.6639 38.5493 27.3386 37.3559L28.7414 38.7588C29.075 39.0923 29.5114 39.2588 29.9482 39.2588C30.385 39.2588 30.8218 39.0921 31.1549 38.7588C31.8216 38.0921 31.8216 37.0118 31.1549 36.3451L29.7521 34.9422C30.9455 33.2677 31.6551 31.226 31.6551 29.0175V23.8968ZM26.8877 32.078C26.221 31.4113 25.1407 31.4113 24.474 32.078C23.8073 32.7447 23.8073 33.825 24.474 34.4917L24.8601 34.8778C23.845 35.4774 22.6761 35.845 21.4137 35.845C17.6482 35.845 14.5861 32.7822 14.5861 29.0175V23.8968C14.5861 20.132 17.6484 17.0692 21.4137 17.0692C25.179 17.0692 28.2412 20.132 28.2412 23.8968V29.0175C28.2412 30.2799 27.8734 31.4486 27.2738 32.4639L26.8877 32.078Z" fill="white"/>
<path id="Vector_8" d="M45.3102 0.000244141H86.2757C90.031 0.000244141 93.1033 3.07273 93.1033 6.82777V30.7243C93.1033 34.4795 90.0308 37.5518 86.2757 37.5518H64.0862V44.0259C64.0862 44.7864 63.1668 45.1669 62.6294 44.6294L55.5517 37.552H45.3102C41.555 37.552 38.4827 34.4795 38.4827 30.7245V6.82777C38.4827 3.07273 41.5551 0.000244141 45.3102 0.000244141Z" fill="#3B8DD0"/>
<path id="Vector_9" d="M88.0738 85.8061L79.9564 82.7621C78.624 82.2624 77.7413 80.6873 77.7413 79.2644H64.086C64.086 80.6873 63.2033 82.2624 61.8709 82.7621L53.7535 85.8061C51.7549 86.5556 50.4308 88.4664 50.4308 90.6009V95.5867C50.4308 97.4721 51.9591 99.0004 53.8445 99.0004H87.9826C89.868 99.0004 91.3963 97.4721 91.3963 95.5867V90.6009C91.3965 88.4664 90.0724 86.5556 88.0738 85.8061Z" fill="#D29B6E"/>
<path id="Vector_10" d="M88.0737 85.806L81.5082 83.344L73.0992 90.3515C71.8331 91.4067 69.9942 91.4067 68.7283 90.3515L60.3193 83.344L53.7538 85.806C51.7552 86.5555 50.4311 88.4663 50.4311 90.6008V95.5866C50.4311 97.472 51.9594 99.0003 53.8449 99.0003H87.9829C89.8683 99.0003 91.3966 97.472 91.3966 95.5866V90.6008C91.3964 88.4663 90.0723 86.5555 88.0737 85.806Z" fill="#3B8DD0"/>
<path id="Vector_11" d="M82.3766 58.4887L81.3116 74.4648C81.2124 75.9539 80.4684 77.3254 79.2746 78.2209L75.6932 80.9068C74.8068 81.5716 73.7288 81.931 72.6207 81.931H69.2069C68.099 81.931 67.0208 81.5718 66.1344 80.9068L62.553 78.2207C61.3592 77.3254 60.6152 75.9537 60.516 74.4647L59.451 58.4885C59.1884 54.5478 62.314 51.2068 66.2634 51.2068H75.564C79.5136 51.207 82.6392 54.5478 82.3766 58.4887Z" fill="#F0C087"/>
<path id="Vector_12" d="M83.5088 67.0274C82.5886 66.9499 81.7534 67.6767 81.6918 68.6168C81.5202 71.208 79.1798 73.3969 76.5828 73.3969H70.9137V76.8106H76.5828C80.9868 76.8106 84.8056 73.2368 85.0989 68.8436C85.1606 67.9025 84.4491 67.0899 83.5088 67.0274Z" fill="#5B5D6E"/>
<path id="Vector_13" d="M75.564 51.2073H66.2634C62.3138 51.2073 59.1881 54.5483 59.4509 58.4888L59.8755 64.8583C60.4626 64.8179 75.1032 63.7654 82.273 60.0419L82.3764 58.4888C82.6392 54.5481 79.5137 51.2073 75.564 51.2073Z" fill="#5A4146"/>
<path id="Vector_14" d="M70.9138 76.8107C71.8565 76.8107 72.6207 76.0464 72.6207 75.1037C72.6207 74.161 71.8565 73.3967 70.9138 73.3967C69.971 73.3967 69.2068 74.161 69.2068 75.1037C69.2068 76.0464 69.971 76.8107 70.9138 76.8107Z" fill="#707487"/>
<path id="Vector_15" d="M75.9911 28.6332L71.4804 9.09129C70.9421 6.75358 68.8902 5.12085 66.4913 5.12085H65.0945C62.6959 5.12085 60.644 6.75358 60.1054 9.08975L55.5948 28.6334C55.383 29.5528 55.9563 30.4687 56.875 30.6812C57.7934 30.8879 58.7086 30.3204 58.9219 29.402L60.1925 23.8968H71.3936L72.6642 29.4018C72.8475 30.1911 73.5492 30.7253 74.3261 30.7244C74.4527 30.7244 74.5827 30.7102 74.7113 30.681C75.6295 30.4685 76.2028 29.5524 75.9911 28.6332ZM60.9804 20.4829L63.4328 9.85642C63.6111 9.07815 64.2946 8.53461 65.0947 8.53461H66.4915C67.2917 8.53461 67.975 9.07795 68.1535 9.85816L70.6056 20.4829H60.9804Z" fill="white"/>
</g>
</g>
</svg>
